<svg width="10" height="15" viewBox="0 0 10 15" fill="none" xmlns="http://www.w3.org/2000/svg">
<path d="M4.99306 6.7763C4.52012 6.7763 4.06655 6.58843 3.73213 6.254C3.3977 5.91958 3.20983 5.46601 3.20983 4.99306C3.20983 4.52012 3.3977 4.06655 3.73213 3.73213C4.06655 3.3977 4.52012 3.20983 4.99306 3.20983C5.46601 3.20983 5.91958 3.3977 6.254 3.73213C6.58843 4.06655 6.7763 4.52012 6.7763 4.99306C6.7763 5.22724 6.73018 5.45913 6.64056 5.67548C6.55095 5.89183 6.41959 6.08841 6.254 6.254C6.08842 6.41959 5.89183 6.55094 5.67548 6.64056C5.45913 6.73018 5.22724 6.7763 4.99306 6.7763ZM4.99306 0C3.66882 0 2.39882 0.526053 1.46243 1.46243C0.526053 2.39882 0 3.66882 0 4.99306C0 8.73786 4.99306 14.2659 4.99306 14.2659C4.99306 14.2659 9.98613 8.73786 9.98613 4.99306C9.98613 3.66882 9.46008 2.39882 8.52369 1.46243C7.58731 0.526053 6.31731 0 4.99306 0Z" fill="#DC0410"/>
</svg>
