<svg width="17" height="15" viewBox="0 0 17 15" fill="none" xmlns="http://www.w3.org/2000/svg">
<path d="M0 1.07143C0 0.787268 0.111942 0.514746 0.311199 0.313814C0.510457 0.112883 0.780707 0 1.0625 0H15.9375C16.2193 0 16.4895 0.112883 16.6888 0.313814C16.8881 0.514746 17 0.787268 17 1.07143C17 1.35559 16.8881 1.62811 16.6888 1.82904C16.4895 2.02997 16.2193 2.14286 15.9375 2.14286H1.0625C0.780707 2.14286 0.510457 2.02997 0.311199 1.82904C0.111942 1.62811 0 1.35559 0 1.07143ZM0 7.5C0 7.21584 0.111942 6.94332 0.311199 6.74239C0.510457 6.54145 0.780707 6.42857 1.0625 6.42857H15.9375C16.2193 6.42857 16.4895 6.54145 16.6888 6.74239C16.8881 6.94332 17 7.21584 17 7.5C17 7.78416 16.8881 8.05668 16.6888 8.25761C16.4895 8.45855 16.2193 8.57143 15.9375 8.57143H1.0625C0.780707 8.57143 0.510457 8.45855 0.311199 8.25761C0.111942 8.05668 0 7.78416 0 7.5ZM1.0625 12.8571C0.780707 12.8571 0.510457 12.97 0.311199 13.171C0.111942 13.3719 0 13.6444 0 13.9286C0 14.2127 0.111942 14.4853 0.311199 14.6862C0.510457 14.8871 0.780707 15 1.0625 15H15.9375C16.2193 15 16.4895 14.8871 16.6888 14.6862C16.8881 14.4853 17 14.2127 17 13.9286C17 13.6444 16.8881 13.3719 16.6888 13.171C16.4895 12.97 16.2193 12.8571 15.9375 12.8571H1.0625Z" fill="#4E4D4D"/>
</svg>
